<?xml version="1.0" encoding="UTF-8" standalone="no"?>
<!-- Created with Inkscape (http://www.inkscape.org/) -->

<svg
   width="529.16669mm"
   height="529.16669mm"
   viewBox="0 0 529.1667 529.1667"
   version="1.1"
   id="svg1"
   xml:space="preserve"
   xmlns:inkscape="http://www.inkscape.org/namespaces/inkscape"
   xmlns:sodipodi="http://sodipodi.sourceforge.net/DTD/sodipodi-0.dtd"
   xmlns="http://www.w3.org/2000/svg"
   xmlns:svg="http://www.w3.org/2000/svg"><sodipodi:namedview
     id="namedview1"
     pagecolor="#ffffff"
     bordercolor="#000000"
     borderopacity="0.25"
     inkscape:showpageshadow="2"
     inkscape:pageopacity="0.0"
     inkscape:pagecheckerboard="0"
     inkscape:deskcolor="#d1d1d1"
     inkscape:document-units="mm"><inkscape:page
       x="0"
       y="0"
       width="529.16669"
       height="529.16669"
       id="page2"
       margin="0"
       bleed="0" /></sodipodi:namedview><defs
     id="defs1" /><g
     inkscape:label="Capa 1"
     inkscape:groupmode="layer"
     id="layer1"
     transform="translate(-9.0390628,-52.539064)"><g
       id="g9"
       transform="matrix(2.7571983,0,0,2.7571983,-15.883425,-92.321548)"><circle
         style="fill:#ffffff;stroke:none;stroke-width:5.5;stroke-dasharray:none;stroke-opacity:1"
         id="circle8"
         cx="105"
         cy="148.5"
         r="93.210442" /><path
         style="baseline-shift:baseline;display:inline;overflow:visible;vector-effect:none;fill:#143753;enable-background:accumulate;stop-color:#000000"
         d="m 105,52.539062 c -52.964916,0 -95.9609375,42.996022 -95.9609375,95.960938 0,52.96492 42.9960215,95.96094 95.9609375,95.96094 52.96492,0 95.96094,-42.99602 95.96094,-95.96094 0,-52.964916 -42.99602,-95.960937 -95.96094,-95.960938 z m 0,5.5 c 49.9925,10e-7 90.46094,40.468443 90.46094,90.460938 0,49.9925 -40.46844,90.46094 -90.46094,90.46094 -49.992495,0 -90.460937,-40.46844 -90.460937,-90.46094 0,-49.992495 40.468442,-90.460938 90.460937,-90.460938 z"
         id="path1" /><path
         style="baseline-shift:baseline;display:inline;overflow:visible;vector-effect:none;fill:#143753;fill-opacity:1;enable-background:accumulate;stop-color:#000000"
         d="m 105,80.255859 -1.04492,0.546875 c 0,0 -17.769665,9.210337 -26.644533,11.587891 -8.48556,2.273259 -27.669922,3.146484 -27.669922,3.146484 L 47.482422,95.625 v 65.62305 c 0,5.88711 0.879628,12.06618 3.429687,17.61132 2.765978,6.01467 7.464109,10.67779 11.814453,14.95508 7.002335,6.88477 15.002414,12.66569 23.216797,17.8125 6.00477,3.76235 18.130241,9.11105 18.130861,9.11133 l 0.92578,0.41797 0.92578,-0.41797 c 6.2e-4,-2.8e-4 12.12605,-5.34894 18.13086,-9.11133 8.21442,-5.14683 16.2145,-10.92777 23.2168,-17.8125 4.35033,-4.27729 9.04847,-8.94041 11.81445,-14.95508 2.55001,-5.54503 3.42969,-11.72408 3.42969,-17.61132 V 95.625 l -2.15821,-0.08789 c 0,0 -19.18436,-0.873225 -27.66992,-3.146484 -8.87488,-2.377559 -26.64453,-11.587891 -26.64453,-11.587891 z m 0,5.052735 c 1.66477,0.875197 16.90217,8.849698 26.52539,11.427734 8.77776,2.351539 23.31496,3.026771 26.49219,3.162109 v 61.349613 c 0,5.43259 -0.83805,10.99299 -3.01758,15.73242 -2.31662,5.03751 -6.55686,9.37359 -10.88086,13.625 -6.67769,6.56557 -14.41038,12.16971 -22.45312,17.20898 -4.92647,3.08674 -15.19077,7.72795 -16.66602,8.39258 -1.47518,-0.66462 -11.739488,-5.30581 -16.666016,-8.39258 C 80.291202,202.77516 72.558509,197.171 65.880859,190.60547 61.556852,186.35407 57.316612,182.01798 55,176.98047 52.820518,172.24115 51.982422,166.68078 51.982422,161.24805 V 99.898437 C 55.157811,99.763194 69.696138,99.088057 78.474609,96.736328 88.097854,94.158287 103.33528,86.183792 105,85.308594 Z"
         id="path2" /><path
         d="m 154.45104,103.24796 -89.280858,81.55988 c 0.612358,0.63828 1.232115,1.26708 1.850533,1.89084 5.73495,5.62641 11.960788,10.74501 18.687232,15.15825 5.765288,3.82947 11.894487,7.08494 18.207673,9.91051 0.54544,0.20072 1.0902,0.75803 1.63711,0.25838 7.33398,-3.35614 14.55345,-7.06041 21.14858,-11.78171 4.7175,-3.36889 9.39948,-6.97418 13.64878,-10.98124 3.17201,-2.99031 6.17234,-6.11326 8.83409,-9.51519 2.59451,-3.43956 4.16088,-7.64401 4.74544,-11.78894 0.79852,-5.83534 0.46779,-11.89497 0.49041,-17.83767 0.052,-15.62413 0.0139,-31.2488 0.031,-46.87311 z"
         style="fill:#bea35e;fill-opacity:1;stroke-width:1.05833"
         id="path6" /><path
         d="m 104.96104,89.304626 c -0.23047,0.121093 -0.46097,0.242192 -0.69144,0.363286 -9.138472,4.454089 -18.340606,9.138622 -28.357954,11.263398 -6.703227,1.39162 -13.559713,1.78772 -20.3724,2.31665 0.05718,20.37633 -0.08398,40.75483 0.167948,61.1296 0.189613,3.72103 0.94714,7.56371 2.552816,11.06186 1.652939,3.55373 4.208942,6.55283 6.910172,9.36842 l 89.280858,-81.55988 c -9.97347,-0.68757 -20.13915,-1.41288 -29.57597,-4.973338 -6.83463,-2.529891 -13.35395,-5.813176 -19.91403,-8.969996 z"
         style="fill:#143753;fill-opacity:1;stroke-width:1.05833"
         id="path5" /><path
         sodipodi:type="star"
         style="fill:#bea35e;fill-opacity:1;stroke:none;stroke-width:4.50001;stroke-dasharray:none;stroke-opacity:1"
         id="path7"
         inkscape:flatsided="false"
         sodipodi:sides="5"
         sodipodi:cx="82.156052"
         sodipodi:cy="129.422"
         sodipodi:r1="16.151682"
         sodipodi:r2="6.1619234"
         sodipodi:arg1="-1.5707963"
         sodipodi:arg2="-0.9424778"
         inkscape:rounded="0"
         inkscape:randomized="0"
         d="m 82.156052,113.27032 3.621887,11.16658 11.739275,-0.006 -9.500825,6.89529 3.633383,11.16284 -9.49372,-6.90506 -9.493721,6.90506 3.633383,-11.16284 -9.500825,-6.89529 11.739275,0.006 z"
         inkscape:transform-center-y="-1.5564191"
         transform="matrix(1.00912,0,0,1.00912,-0.60917174,-0.69000297)"
         inkscape:transform-center-x="2.8878623e-06" /><path
         style="fill:#143753;fill-opacity:1;stroke-width:0.507669"
         d="m 112.38882,172.45225 c -0.40342,-0.14315 -0.78517,-0.31196 -0.84834,-0.37512 -0.0636,-0.0636 0.13679,-0.33025 0.44892,-0.59742 0.4051,-0.34675 0.73837,-0.50502 1.18414,-0.56235 1.11608,-0.14353 1.40439,-0.355 2.07936,-1.52522 0.34199,-0.5929 0.8376,-1.2426 1.10135,-1.44378 0.26376,-0.20118 0.59316,-0.58846 0.73202,-0.86061 0.29187,-0.57213 0.93874,-3.02942 0.93874,-3.56605 0,-0.35977 -0.008,-0.36284 -0.70518,-0.28089 -0.99886,0.11735 -3.48858,1.38007 -4.24919,2.15508 l -0.58538,0.59644 -0.42024,-0.25625 c -0.55823,-0.3404 -0.94974,-0.32398 -2.0374,0.0854 -1.57611,0.59325 -2.03483,0.26238 -1.34568,-0.97064 0.19113,-0.34197 0.31623,-0.65305 0.278,-0.69127 -0.0382,-0.0382 -0.36631,0.0694 -0.72905,0.23939 -0.77128,0.36125 -1.05838,0.31935 -1.86133,-0.27167 l -0.57399,-0.42249 0.87146,-0.9238 c 1.08279,-1.14781 1.33735,-1.61544 1.23337,-2.2657 -0.0866,-0.54163 0.18078,-1.16023 0.87484,-2.0239 0.21692,-0.26992 0.43082,-0.72728 0.47535,-1.01636 0.0445,-0.28907 0.13512,-0.63136 0.20131,-0.76064 0.15088,-0.29467 0.61858,-0.30351 0.93443,-0.0177 0.35039,0.31711 0.80032,0.14676 1.26264,-0.47805 0.448,-0.60545 0.55331,-0.63681 1.09481,-0.32603 0.37709,0.21642 0.39357,0.21115 1.28168,-0.40968 0.49482,-0.34591 1.46115,-0.89348 2.1474,-1.21682 0.68624,-0.32334 1.9126,-0.98646 2.72523,-1.47359 0.81265,-0.48712 1.71931,-0.95998 2.01482,-1.0508 0.29846,-0.0917 1.22389,-0.16266 2.08197,-0.15958 l 1.54469,0.005 1.27604,0.62471 c 2.10409,1.0301 2.62716,1.07042 6.17875,0.47623 3.30052,-0.55219 5.93394,-0.36527 8.01051,0.56861 1.81393,0.81576 4.37231,2.99924 5.28426,4.5099 0.42177,0.69866 0.4677,0.87271 0.47279,1.79139 0.003,0.57825 0.0814,1.15257 0.18124,1.33032 0.33914,0.60402 0.55156,1.59015 0.75773,3.51763 0.20479,1.91442 0.21999,1.96972 0.95595,3.47598 0.41133,0.84183 0.77925,1.72403 0.81761,1.96044 0.10038,0.61856 -0.22337,1.13748 -1.07605,1.72474 -0.70793,0.48756 -0.78616,0.50928 -1.82682,0.50699 -1.37002,-0.003 -2.3951,-0.38071 -2.17079,-0.79985 0.15524,-0.29005 0.28912,-0.36121 1.41294,-0.75098 0.43873,-0.15216 0.82026,-0.34834 0.84785,-0.43599 0.088,-0.27936 -0.56469,-0.57757 -1.52909,-0.69866 -1.55312,-0.19501 -2.41189,-0.759 -3.21957,-2.1144 -0.13908,-0.23341 -0.19206,-0.21922 -0.87308,0.23396 -1.04556,0.69577 -3.17728,2.63613 -3.88154,3.53311 -0.33244,0.42342 -0.78047,0.86268 -0.9956,0.97613 -0.86822,0.45785 -3.02391,0.34408 -4.5912,-0.24232 l -0.75734,-0.28336 0.4028,-0.4028 c 0.35517,-0.35518 0.53408,-0.41604 1.51282,-0.51471 0.6105,-0.0615 1.16317,-0.16506 1.22815,-0.23005 0.15962,-0.15961 0.16909,-0.57248 0.0654,-2.85113 l -0.0886,-1.94765 -1.88056,-0.0373 c -1.86366,-0.0369 -1.88056,-0.0346 -1.88056,0.26056 0,0.16382 0.25002,0.71164 0.5556,1.21739 0.71371,1.18122 0.72167,1.62137 0.0538,2.97303 -0.27599,0.55855 -0.59568,1.09351 -0.71045,1.18881 -0.22687,0.18839 -3.26979,0.33376 -3.86411,0.18459 -0.8182,-0.20536 -0.13285,-1.02088 1.16002,-1.38033 0.63509,-0.17656 0.75225,-0.25399 0.67828,-0.44821 -0.12662,-0.33242 -3.37534,-3.37816 -3.54349,-3.32211 -0.0764,0.0255 -0.3203,0.37625 -0.54187,0.77949 -0.51228,0.9323 -0.89674,1.34278 -1.98135,2.11549 -0.48019,0.34211 -1.47752,1.10279 -2.21629,1.69039 -1.63422,1.29984 -2.34635,1.63926 -3.82461,1.82292 -1.47462,0.1832 -1.6743,0.17235 -2.55034,-0.1385 z"
         id="path8" /></g></g></svg>
